Coordinates
version=1
nRows=12
nColumns=42
inDegrees=yes

Units are S.I. units (second, meters, Newtons, ...)
If the header above contains a line with 'inDegrees', this indicates whether rotational values are in degrees (yes) or radians (no).

endheader
time	pelvis_tilt	pelvis_list	pelvis_rotation	pelvis_tx	pelvis_ty	pelvis_tz	hip_flexion_r	hip_adduction_r	hip_rotation_r	knee_angle_r	knee_adduction_r	knee_angle_r_beta	ankle_angle_r	subtalar_angle_r	mtp_angle_r	hip_flexion_l	hip_adduction_l	hip_rotation_l	knee_angle_l	knee_adduction_l	knee_angle_l_beta	ankle_angle_l	subtalar_angle_l	mtp_angle_l	lumbar_extension	lumbar_bending	lumbar_rotation	arm_flex_r	arm_add_r	arm_rot_r	elbow_flex_r	pro_sup_r	wrist_flex_r	wrist_dev_r	arm_flex_l	arm_add_l	arm_rot_l	elbow_flex_l	pro_sup_l	wrist_flex_l	wrist_dev_l
      1.94000000	     -9.44159939	     -1.34454456	     -3.12485470	      0.42467562	      0.91338470	     -0.07819102	     -8.60781143	      8.81351348	     -2.31491883	      3.61875464	     -7.42541134	      0.06315918	     24.54642408	      8.48525041	     -7.50724040	     36.52829997	     -1.45438542	     -4.07952772	      8.29965951	     -4.92272308	      0.14485639	      6.70269505	      4.75606448	     -7.50724040	      1.27196123	     -0.38828271	      3.11882660	      8.77441756	    -17.66246904	      1.51203503	     39.75256462	     90.00000001	      0.00000000	      0.00000000	    -17.20981861	    -10.51156282	    -16.87702969	     14.88881695	     90.00000001	      0.00000000	      0.00000000
      1.95000000	     -9.41597893	     -1.08381115	     -3.35126845	      0.43656150	      0.91189627	     -0.07837313	     -9.18881628	      8.30185155	     -2.09244262	      4.18058753	     -7.22224009	      0.07296502	     24.67224242	      8.22220749	     -7.50710808	     36.88282601	     -1.23713295	     -4.69574002	      9.58787646	     -4.99766137	      0.16734001	      6.05449925	      4.16773699	     -7.50710808	      1.24062735	     -0.86550886	      3.32499244	      8.56641189	    -17.58566811	      1.32338965	     39.81788895	     90.00000001	      0.00000000	      0.00000000	    -16.97409504	    -10.71409457	    -16.76940305	     14.52283930	     90.00000001	      0.00000000	      0.00000000
      1.96000000	     -9.38070969	     -0.84305008	     -3.51367363	      0.44863574	      0.91066400	     -0.07859687	     -9.73906985	      7.80088087	     -1.88942747	      4.83389167	     -6.99544075	      0.08436733	     24.56177609	      7.98132016	     -7.50699709	     37.11689907	     -0.97452032	     -4.63545306	     10.98158944	     -5.08429791	      0.19166489	      5.37599859	      3.41926526	     -7.50699709	      1.21256267	     -1.34538191	      3.44059376	      8.30600980	    -17.43369483	      1.12512882	     39.79959451	     90.00000001	      0.00000000	      0.00000000	    -16.74536939	    -10.91482162	    -16.67733699	     14.31614254	     90.00000001	      0.00000000	      0.00000000
      1.97000000	     -9.34042061	     -0.54487216	     -3.66620579	      0.46086156	      0.90976183	     -0.07875221	    -10.23757503	      7.24938949	     -1.61551590	      5.58890568	     -6.81182744	      0.09754481	     24.30257860	      7.85722946	     -7.50692102	     37.22180866	     -0.68763105	     -4.06909573	     12.40510684	     -5.03460505	      0.21650996	      4.75774524	      2.87233091	     -7.50692102	      1.18262541	     -1.92263527	      3.55870310	      7.96725973	    -17.24691045	      0.99978706	     39.70916181	     90.00000001	      0.00000000	      0.00000000	    -16.50739795	    -11.14297782	    -16.59676893	     14.28302084	     90.00000001	      0.00000000	      0.00000000
      1.98000000	     -9.61496923	     -0.26607584	     -3.58911105	      0.47277742	      0.90895770	     -0.07916423	    -10.29533095	      6.75960031	     -1.17529081	      6.52720927	     -6.54869277	      0.11392129	     23.69404112	      6.44083533	     -7.50650520	     37.70404256	     -0.21654867	     -2.00326166	     14.17455302	     -4.82872457	      0.24739262	      2.59144049	     -1.80546893	     -7.50650520	      1.49762629	     -2.48196547	      3.52821063	      7.53702335	    -16.84034846	      0.26573149	     39.42283671	     90.00000001	      0.00000000	      0.00000000	    -15.97268586	    -11.43040879	    -16.49355453	     13.83226305	     90.00000001	      0.00000000	      0.00000000
      1.99000000	     -9.58875682	      0.11467958	     -3.50639170	      0.48525120	      0.90878524	     -0.07975846	    -10.62661121	      6.05379196	     -0.93320421	      7.56608152	     -6.16246525	      0.13205303	     22.97236755	      5.67239191	     -7.50610458	     37.85354146	      0.27378275	     -0.59856525	     16.00806780	     -4.49572095	      0.27939349	      1.32301159	     -4.26084248	     -7.50610458	      1.49622888	     -3.16769667	      3.40295246	      7.10054837	    -16.49011326	     -0.09790160	     39.16104510	     90.00000001	      0.00000000	      0.00000000	    -15.54363231	    -11.69715053	    -16.33869202	     13.67473588	     90.00000001	      0.00000000	      0.00000000
      2.00000000	     -9.32191849	      0.55964216	     -3.41208584	      0.49829080	      0.90917094	     -0.08042768	    -11.14801969	      5.20701144	     -1.05325550	      8.72001264	     -5.69868486	      0.15219293	     22.05852911	      5.24094756	     -7.50599054	     37.82913446	      0.74675906	      0.02436855	     18.10265883	     -4.09869736	      0.31595100	      0.88381733	     -5.26259227	     -7.50599054	      1.27491922	     -3.93203929	      3.33761253	      6.54297412	    -16.17924068	     -0.34182274	     38.82858898	     90.00000001	      0.00000000	      0.00000000	    -15.04810728	    -11.99587000	    -16.13195326	     13.61534077	     90.00000001	      0.00000000	      0.00000000
      2.01000000	     -9.41832791	      0.88484838	     -3.17936189	      0.51096691	      0.90963042	     -0.08118037	    -11.06887052	      4.57618102	     -0.90892295	     10.25332101	     -5.23436494	      0.17895421	     20.86144536	      4.04842080	     -7.50564900	     37.93363505	      1.21844804	      2.07401302	     19.73723295	     -3.38044297	      0.34447970	     -0.45420260	     -8.64387157	     -7.50564900	      1.42749767	     -4.55496620	      3.16935958	      5.93108979	    -15.71557667	     -0.97054028	     38.32537320	     90.00000001	      0.00000000	      0.00000000	    -14.48756721	    -12.29456290	    -15.73419388	     13.54578856	     90.00000001	      0.00000000	      0.00000000
      2.02000000	     -9.19326572	      1.26371306	     -2.97374174	      0.52422550	      0.91071549	     -0.08207357	    -11.25292229	      3.79252690	     -1.03515748	     11.92791133	     -4.68339634	      0.20818133	     19.41084038	      3.21916268	     -7.50544867	     37.65560937	      1.69690771	      3.09966753	     21.33847491	     -2.77295848	      0.37242664	     -0.78408147	    -10.09425406	     -7.50544867	      1.26637353	     -5.21824933	      3.00487545	      5.27656916	    -15.32255606	     -1.36032813	     37.81531367	     90.00000001	      0.00000000	      0.00000000	    -13.89398133	    -12.56219860	    -15.39944029	     13.54063696	     90.00000001	      0.00000000	      0.00000000
      2.03000000	     -8.84601528	      1.51040864	     -2.75072715	      0.53762593	      0.91223713	     -0.08304193	    -11.49772846	      3.09836807	     -1.07748414	     13.67792767	     -3.99221763	      0.23872487	     17.69080519	      2.86962843	     -7.50537448	     37.10340363	      2.01696043	      3.83106265	     22.67030300	     -2.14404860	      0.39567143	     -0.45118391	    -10.51825090	     -7.50537448	      0.96053285	     -5.70926654	      2.76131955	      4.62224157	    -15.00438893	     -1.51673071	     37.30035804	     90.00000001	      0.00000000	      0.00000000	    -13.29751609	    -12.74304292	    -15.18060034	     13.67438697	     90.00000001	      0.00000000	      0.00000000
      2.04000000	     -8.87069746	      1.73004577	     -2.37513992	      0.55058389	      0.91376728	     -0.08407390	    -10.90434228	      2.58400668	     -1.28645391	     16.19995377	     -3.52176907	      0.28274253	     15.54896925	      1.04381661	     -7.50509018	     36.71127651	      2.52788124	      5.26059046	     23.52333897	     -1.59189959	      0.41055972	     -0.87288485	    -12.81630077	     -7.50509018	      1.05794910	     -6.15567207	      2.52006724	      3.92849522	    -14.49011738	     -2.16807843	     36.42711372	     90.00000001	      0.00000000	      0.00000000	    -12.57054980	    -13.04640808	    -14.53008215	     13.74124027	     90.00000001	      0.00000000	      0.00000000
      2.05000000	     -8.44238016	      1.84140711	     -2.03703336	      0.56378270	      0.91601655	     -0.08527372	    -10.88266957	      2.07906465	     -1.34195628	     18.42716273	     -2.87524499	      0.32161466	     13.36585857	      0.60283548	     -7.50505139	     35.75820495	      2.88493130	      5.69166698	     24.27331496	     -1.26826190	      0.42364927	     -0.20919320	    -12.94302399	     -7.50505139	      0.62284647	     -6.43954163	      2.19485959	      3.28684975	    -14.16870932	     -2.26632123	     35.71483131	     90.00000001	      0.00000000	      0.00000000	    -11.76830255	    -13.19095594	    -14.33631051	     13.90356601	     90.00000001	      0.00000000	      0.00000000
